<svg width="385" height="72" viewBox="0 0 385 72" fill="none" xmlns="http://www.w3.org/2000/svg">
<path d="M52.7598 22.2C51.1598 19.2667 48.9598 17.0333 46.1598 15.5C43.3598 13.9667 40.0931 13.2 36.3598 13.2C32.2264 13.2 28.5598 14.1333 25.3598 16C22.1598 17.8667 19.6598 20.5333 17.8598 24C16.0598 27.4667 15.1598 31.4667 15.1598 36C15.1598 40.6667 16.0598 44.7333 17.8598 48.2C19.7264 51.6667 22.2931 54.3333 25.5598 56.2C28.8264 58.0667 32.6264 59 36.9598 59C42.2931 59 46.6598 57.6 50.0598 54.8C53.4598 51.9333 55.6931 47.9667 56.7598 42.9H32.7598V32.2H70.5598V44.4C69.6264 49.2667 67.6264 53.7667 64.5598 57.9C61.4931 62.0333 57.5264 65.3667 52.6598 67.9C47.8598 70.3667 42.4598 71.6 36.4598 71.6C29.7264 71.6 23.6264 70.1 18.1598 67.1C12.7598 64.0333 8.4931 59.8 5.35977 54.4C2.2931 49 0.759766 42.8667 0.759766 36C0.759766 29.1333 2.2931 23 5.35977 17.6C8.4931 12.1333 12.7598 7.9 18.1598 4.9C23.6264 1.83333 29.6931 0.299998 36.3598 0.299998C44.2264 0.299998 51.0598 2.23333 56.8598 6.1C62.6598 9.9 66.6598 15.2667 68.8598 22.2H52.7598ZM94.9176 12.5V30H118.418V41.1H94.9176V59.6H121.418V71H80.9176V1.09999H121.418V12.5H94.9176ZM193.84 71H179.84L148.14 23.1V71H134.14V1.09999H148.14L179.84 49.1V1.09999H193.84V71ZM232.075 1.2C239.409 1.2 245.842 2.63333 251.375 5.5C256.975 8.36666 261.275 12.4667 264.275 17.8C267.342 23.0667 268.875 29.2 268.875 36.2C268.875 43.2 267.342 49.3333 264.275 54.6C261.275 59.8 256.975 63.8333 251.375 66.7C245.842 69.5667 239.409 71 232.075 71H207.675V1.2H232.075ZM231.575 59.1C238.909 59.1 244.575 57.1 248.575 53.1C252.575 49.1 254.575 43.4667 254.575 36.2C254.575 28.9333 252.575 23.2667 248.575 19.2C244.575 15.0667 238.909 13 231.575 13H221.675V59.1H231.575ZM293.355 12.5V30H316.855V41.1H293.355V59.6H319.855V71H279.355V1.09999H319.855V12.5H293.355ZM368.578 71L353.178 43.8H346.578V71H332.578V1.2H358.778C364.178 1.2 368.778 2.16666 372.578 4.1C376.378 5.96666 379.211 8.53333 381.078 11.8C383.011 15 383.978 18.6 383.978 22.6C383.978 27.2 382.644 31.3667 379.978 35.1C377.311 38.7667 373.344 41.3 368.078 42.7L384.778 71H368.578ZM346.578 33.3H358.278C362.078 33.3 364.911 32.4 366.778 30.6C368.644 28.7333 369.578 26.1667 369.578 22.9C369.578 19.7 368.644 17.2333 366.778 15.5C364.911 13.7 362.078 12.8 358.278 12.8H346.578V33.3Z" fill="url(#paint0_linear)" fill-opacity="0.2"/>
<defs>
<linearGradient id="paint0_linear" x1="193.5" y1="-39" x2="194" y2="71" gradientUnits="userSpaceOnUse">
<stop/>
<stop offset="1" stop-opacity="0"/>
</linearGradient>
</defs>
</svg>
